<?xml version="1.0" encoding="utf-8"?>
<svg viewBox="0 0 500 500" xmlns="http://www.w3.org/2000/svg" fill="white">
  <path d="M 174.042 265.808 L 215.45 316.866 L 222.797 325.924 L 230.628 317.281 L 325.602 212.459 L 310.78 199.031 L 223.637 295.21 L 189.576 253.21 Z"/>
  <path d="M 318.729 61.587 L 356.846 61.587 L 356.846 134.177 L 145.004 134.177 L 145.004 61.587 L 182.117 61.587 L 182.117 48.345 L 250.423 28.356 L 318.729 48.345 Z M 250.423 29.398 L 183.117 49.095 L 183.117 62.587 L 146.004 62.587 L 146.004 133.177 L 355.846 133.177 L 355.846 62.587 L 317.729 62.587 L 317.729 49.095 Z M 298.729 63.331 L 298.729 81.587 L 336.846 81.587 L 336.846 114.177 L 165.004 114.177 L 165.004 81.587 L 202.117 81.587 L 202.117 63.331 L 250.423 49.194 Z M 203.117 64.081 L 203.117 82.587 L 166.004 82.587 L 166.004 113.177 L 335.846 113.177 L 335.846 82.587 L 297.729 82.587 L 297.729 64.081 L 250.423 50.236 Z" />
  <path d="M 388.259 81.794 C 359.222 81.825 355.749 81.825 355.749 81.825 L 355.749 133.466 L 144.907 133.466 L 144.907 81.794 L 111.742 81.794 L 111.742 432.59 L 388.259 432.59 L 388.259 81.794 Z M 317.632 48.509 L 317.632 61.876 C 356.346 61.883 408.259 61.794 408.259 61.794 L 408.259 452.59 L 91.742 452.59 L 91.742 61.794 C 145.504 61.876 182.02 61.876 182.02 61.876 L 182.02 48.509 L 249.826 28.666 L 317.632 48.509 Z M 202.02 63.495 L 202.02 81.876 L 164.907 81.876 L 164.907 113.466 L 335.749 113.466 L 335.749 81.876 L 297.632 81.876 L 297.632 63.495 L 249.826 49.504 L 202.02 63.495 Z" />
</svg>
