<?xml version="1.0" encoding="UTF-8" standalone="no"?>
<svg
   version="1.1"
   viewBox="0 0 435.2 102.6"
   style="enable-background:new 0 0 435.2 102.6"
   class="css-17aq17m"
   id="svg6847"
   sodipodi:docname="loog-white.svg"
   inkscape:version="1.2.1 (9c6d41e, 2022-07-14)"
   xmlns:inkscape="http://www.inkscape.org/namespaces/inkscape"
   xmlns:sodipodi="http://sodipodi.sourceforge.net/DTD/sodipodi-0.dtd"
   xmlns="http://www.w3.org/2000/svg"
   xmlns:svg="http://www.w3.org/2000/svg">
  <defs
     id="defs6851" />
  <sodipodi:namedview
     id="namedview6849"
     pagecolor="#ffffff"
     bordercolor="#000000"
     borderopacity="0.25"
     inkscape:showpageshadow="2"
     inkscape:pageopacity="0.0"
     inkscape:pagecheckerboard="0"
     inkscape:deskcolor="#d1d1d1"
     showgrid="false"
     inkscape:zoom="2.300195"
     inkscape:cx="218.025"
     inkscape:cy="51.299999"
     inkscape:window-width="1309"
     inkscape:window-height="456"
     inkscape:window-x="0"
     inkscape:window-y="0"
     inkscape:window-maximized="0"
     inkscape:current-layer="svg6847" />
  <g
     id="g6845"
     style="fill:#ffffff">
    <path
       d="M106.5,98H86.4V33.1h-1.7L66.5,93.4c-1.1,3.6-2,4.6-5.3,4.6H52c-3.4,0-4.3-1-5.3-4.6L28.2,32.5h-1.5V98H7.2V9h28.1   c3.7,0,5,1.1,6,4.8l15.3,53.1h1.5l14.7-53.1c1-3.7,2.2-4.8,6-4.8h27.7V98z"
       id="path6833"
       style="fill:#ffffff" />
    <path
       d="M129.3,32c2.8-2.8,6-3.9,12.5-3.9h25.4c7.1,0,11.3,1.3,13.9,3.9c3.2,3.2,4.2,6.9,4.2,18.7V98h-19.4v-8   c-8.4,6.9-11.4,8.1-17.7,8.1h-9.5c-6.2,0-9.5-0.8-12.3-3.6c-2.4-2.4-4.1-6.5-4.1-15.6c0-8.6,1.3-14,4.3-17   c3.2-3.2,7.2-4.7,19.8-4.7c6.7,0,13.7,0.8,19.4,2V53c0-6.9-0.4-8.3-1.3-9.3c-0.9-0.8-2.2-1-5.1-1h-9.9c-2.7,0-4.1,0.3-4.8,1   c-1,1-1.1,2.4-1.4,6.6h-18.3C125.1,38.9,126.3,34.8,129.3,32z M165.7,80.5V68.9h-12.8c-7.4,0-9.2,0.5-10.4,1.8   c-1.3,1.3-1.5,2.8-1.5,6c0,3.6,0.3,5.5,1.3,6.5c1,1,2.4,1.1,5,1.1h5.5C156.7,84.2,159.4,83.8,165.7,80.5z"
       id="path6835"
       style="fill:#ffffff" />
    <path
       d="M245.2,98v-9c-8.8,7.6-11.8,9.1-17.5,9.1h-7.4c-7.4,0-11.3-1.3-14.4-4.3c-4.2-4.2-5.8-10.3-5.8-30.8   c0-20.6,2-26.4,6.4-30.8c3-3,7.1-4.3,14.1-4.3h7.6c5.8,0,9,1.3,17,8V4.2h19.4V98H245.2z M245.2,79.5V46.2c-4.1-1.9-7-2.8-10.2-2.8   h-7c-3.6,0-5.2,0.5-6.4,1.7c-1.8,1.7-2.3,4.6-2.3,17.9s0.5,16.1,2.3,17.9c1.1,1.1,2.8,1.5,6.4,1.5h6.4   C237.7,82.4,240.8,81.6,245.2,79.5z"
       id="path6837"
       style="fill:#ffffff" />
    <path
       d="M278.6,98v-8h11.6V14.6h-11.6V6.5h20.6v83.5h11.2v8H278.6z"
       id="path6839"
       style="fill:#ffffff" />
    <path
       d="M321,98v-8h11.4V38.1H321V30h20.6v60h10.9v8H321z M331.1,5.9H342v12.2h-10.9V5.9z"
       id="path6841"
       style="fill:#ffffff" />
    <path
       d="M381.6,39c9-7.4,12.3-9.1,19.3-9.1h7.1c7.6,0,11.6,1.3,14.5,4.2c3.9,4.1,5.3,9.4,5.3,29.9c0,20.6-1.4,25.9-5.3,30   c-2.9,2.9-6.9,4.2-14.5,4.2H401c-7,0-10.3-1.8-19.3-9.1v9h-20.3v-8h11.2V14.6h-11.2V6.5h20.3V39z M381.6,44.2v39.4   c7,4.4,11.1,6.2,17,6.2h7.5c5.5,0,7.6-0.9,9.2-2.4c2.5-2.5,3.2-6.6,3.2-23.5c0-16.8-0.6-21-3.2-23.4c-1.5-1.7-3.7-2.4-9.2-2.4h-7.9   C392.4,38.1,388.4,39.9,381.6,44.2z"
       id="path6843"
       style="fill:#ffffff" />
  </g>
</svg>
